<svg width="700" height="170" viewBox="0 0 700 170" fill="none" xmlns="http://www.w3.org/2000/svg">
<g clip-path="url(#clip0_43_23)">
<path d="M174.558 0V10.4088H0V7.78789H77.5129L78.7433 5.24185H125.343L127.881 0H174.558Z" fill="black"/>
<path d="M174.558 15.8005V26.2842H0V23.6633H69.9L71.2073 21.0424H117.807L120.345 15.8005H174.558Z" fill="black"/>
<path d="M174.558 31.6758V42.0846H0V39.4637H62.3641L63.5944 36.8427H110.271L112.732 31.6758H174.558Z" fill="black"/>
<path d="M174.558 47.4761V57.8849H0V55.264H54.8281L56.0584 52.7179H102.658L105.196 47.4761H174.558Z" fill="black"/>
<path d="M174.558 63.2766V73.6854H0V71.1394H47.2152L48.5225 68.5185H95.1225L97.6601 63.2766H174.558Z" fill="black"/>
<path d="M174.558 79.1519V89.5607H85.741H0V86.9397H39.6792L40.9096 84.3188H87.5865L90.0472 79.1519H174.558Z" fill="black"/>
<path d="M174.558 93.6045V96.2254H128.496L129.803 93.6045H174.558Z" fill="black"/>
<path d="M128.496 96.2253L123.575 106.634H0V104.088H31.5281L32.7584 101.467H79.3585L81.8961 96.2253H128.496Z" fill="black"/>
<path d="M174.559 109.48V112.101H120.961L122.191 109.48H174.559Z" fill="black"/>
<path d="M120.96 112.101L115.962 122.51H0V119.889H23.9152L25.1456 117.268H71.8225L74.2832 112.101H120.96Z" fill="black"/>
<path d="M174.558 125.28V127.901H113.348L114.655 125.28H174.558Z" fill="black"/>
<path d="M113.347 127.901L108.426 138.31H0V135.689H16.3792L17.6096 133.068H64.2865L66.7472 127.901H113.347Z" fill="black"/>
<path d="M174.557 141.081V143.701H105.811L107.041 141.081H174.557Z" fill="black"/>
<path d="M105.811 143.702L100.813 154.11H0V151.564H8.76634L10.0736 148.944H56.6736L59.1344 143.702H105.811Z" fill="black"/>
<path d="M174.558 156.881V159.502H98.2754L99.5058 156.881H174.558Z" fill="black"/>
<path d="M98.2753 159.502L93.2769 169.911H0V167.365H1.23036L2.46073 164.744H49.1376L51.5984 159.502H98.2753Z" fill="black"/>
<path d="M408.788 29.131C398.407 19.8454 383.874 15.2026 365.034 15.2026H329.199V154.861H365.034C383.874 154.861 398.407 150.218 408.788 141.007C419.093 131.796 424.245 117.419 424.245 98.0239V72.1142C424.245 52.7942 419.093 38.5663 408.788 29.2059V29.131ZM407.25 98.7727C407.25 112.701 403.713 123.035 396.639 129.7C389.487 136.364 379.029 139.659 365.11 139.659H346.501V30.5538H365.11C379.029 30.5538 389.564 33.8486 396.639 40.2886C403.713 46.8035 407.25 57.2123 407.25 71.4402V98.7727Z" fill="black"/>
<path d="M700.001 15.2026V154.786H683.468V26.1356H680.623L642.712 154.786H612.953L575.042 26.1356H572.197V154.786H555.664V15.2026H588.422L624.718 138.087V146.249H631.024V138.012L667.243 15.2026H700.001Z" fill="black"/>
<path d="M323.893 154.784H306.13L295.057 119.439H312.743L323.893 154.784Z" fill="black"/>
<path d="M310.745 113.374H248.304L251.149 104.388H276.987L278.909 98.2472H288.675L286.753 92.1068L283.83 82.6715L276.218 58.1096L270.989 41.2608L267.759 30.852V23.7381H261.453V30.7771L238.384 104.313L235.539 113.299H248.381L246.458 119.439H233.616L222.543 154.784H205.164L216.314 119.439L218.237 113.299L249.38 15.1265H270.527C275.987 15.1265 280.755 18.5711 282.369 23.6632L284.676 30.9269L292.366 55.2641L304.055 92.1068L307.899 104.313L310.745 113.299V113.374Z" fill="black"/>
<path d="M549.358 154.784H531.518L520.521 119.439H538.208L549.358 154.784Z" fill="black"/>
<path d="M536.21 113.374H473.769L476.614 104.388H502.451L504.374 98.2472H514.14L512.217 92.1068L509.295 82.6715L501.682 58.1096L496.453 41.2608L493.224 30.852V23.7381H486.918V30.7771L463.849 104.313L461.004 113.299H473.845L471.923 119.439H459.081L448.008 154.784H430.629L441.779 119.439L443.702 113.299L474.845 15.1265H495.992C501.452 15.1265 506.219 18.5711 507.834 23.6632L510.141 30.9269L517.831 55.2641L529.519 92.1068L533.364 104.313L536.21 113.299V113.374Z" fill="black"/>
</g>
<defs>
<clipPath id="clip0_43_23">
<rect width="700" height="169.911" fill="white"/>
</clipPath>
</defs>
</svg>
